<?xml version="1.0" encoding="UTF-8" standalone="no"?>
<!-- Created with Inkscape (http://www.inkscape.org/) -->
<svg xmlns:svg="http://www.w3.org/2000/svg" xmlns="http://www.w3.org/2000/svg" version="1.1" width="512" height="512" id="svg2">
  <defs id="defs4"/>
  <g transform="translate(0,-540.36215)" id="layer1" style="display:inline"/>
  <g id="layer4">
    <path d="m 99.642857,372.89287 21.785713,-32.85716 c 49.03143,108.53575 146.58861,97.78673 182.04755,84.05832 l 65.98417,0.6325 c -70.38465,58.2847 -200.42147,64.88342 -269.817433,-51.83366 z" id="path3617" style="fill:#000000;fill-opacity:1;stroke:#000000;stroke-width:1px;stroke-linecap:butt;stroke-linejoin:miter;stroke-opacity:1"/>
    <path d="M 262.0447,110.10073 281.74984,144.682 C 163.23941,132.87659 121.62689,223.45238 115.78657,261.02493 L 82.246722,317.85265 C 66.963016,227.7554 126.26677,111.84086 262.0447,110.10073 z" id="path3617-1" style="fill:#000000;fill-opacity:1;stroke:#000000;stroke-width:1px;stroke-linecap:butt;stroke-linejoin:miter;stroke-opacity:1"/>
    <path d="m 409.18551,382.16109 -42.02656,-0.47411 c 69.479,-96.73034 14.07005,-177.80711 -15.54857,-201.65125 l -32.44432,-57.46022 c 85.66836,31.81255 156.40142,141.12837 90.01945,259.58558 z" id="path3617-1-6" style="fill:#000000;fill-opacity:1;stroke:#000000;stroke-width:1px;stroke-linecap:butt;stroke-linejoin:miter;stroke-opacity:1"/>
    <path d="m 203.66909,268.68016 0.40989,39.4014 5.12362,0 -0.40989,-7.73068 90.58557,0 0,7.98003 5.53351,0 -0.40989,-39.65075 -5.32856,0 0,9.47627 -90.38063,-1.24686 0,-8.22941 -5.12362,0 z" id="path3590" style="fill:#000000;fill-opacity:1;stroke:#000000;stroke-width:1.33818781;stroke-linecap:butt;stroke-linejoin:miter;stroke-miterlimit:4;stroke-opacity:1;stroke-dasharray:none;display:inline"/>
  </g>
  <g id="layer2" style="display:inline"/>
  <g id="layer3" style="display:inline">
    <path d="m 100.76752,386.39291 c 10.60392,14.4029 20.29646,25.9683 26.89531,31.69354 L 28.536809,418.05581 176.95001,171.94625 c 16.11058,-7.71372 32.21323,-15.64157 48.48733,-18.94036 l -140.331988,233.23012 15.662168,0.1569 z" id="path3610" style="fill:#000000;fill-opacity:1;stroke:#000000;stroke-width:1px;stroke-linecap:butt;stroke-linejoin:miter;stroke-opacity:1"/>
    <path d="m 211.96428,111.46428 c 21.1726,-5.85415 27.84675,-4.45908 40.53572,-6.07143 l 7.85714,-11.964279 130.35715,228.749999 c 5.32435,-16.37343 5.43563,-36.35592 4.64286,-56.96428 L 261.07143,30.214285 211.96428,111.46428 z" id="path3613" style="fill:#000000;fill-opacity:1;stroke:#000000;stroke-width:1px;stroke-linecap:butt;stroke-linejoin:miter;stroke-opacity:1"/>
    <path d="m 433.35544,330.17255 c -3.0644,16.05129 -8.25496,28.154 -13.63706,39.90102 l 8.5863,16.41498 -269.96327,0.25253 c 12.58134,13.10651 26.90429,23.16519 42.17387,31.56727 l 283.09525,-0.25254 -50.25509,-87.88326 z" id="path3615" style="fill:#000000;fill-opacity:1;stroke:#000000;stroke-width:1px;stroke-linecap:butt;stroke-linejoin:miter;stroke-opacity:1"/>
  </g>
</svg>